<?xml version="1.0" standalone="no"?>
<!DOCTYPE svg PUBLIC "-//W3C//DTD SVG 20010904//EN"
 "http://www.w3.org/TR/2001/REC-SVG-20010904/DTD/svg10.dtd">
<svg version="1.0" xmlns="http://www.w3.org/2000/svg"
 width="128.000000pt" height="128.000000pt" viewBox="0 0 128.000000 128.000000"
 preserveAspectRatio="xMidYMid meet">

<g transform="translate(0.000000,128.000000) scale(0.100000,-0.100000)"
fill="#000000" stroke="none">
<path d="M0 640 l0 -640 640 0 640 0 0 640 0 640 -640 0 -640 0 0 -640z m661
570 c20 -11 28 -70 9 -70 -5 0 -10 -18 -10 -40 l0 -40 93 0 c114 0 170 -23
200 -82 12 -24 26 -38 38 -38 11 0 19 -7 19 -16 0 -9 9 -23 21 -33 14 -11 23
-33 26 -63 5 -41 2 -50 -21 -73 -14 -14 -26 -32 -26 -40 0 -9 -10 -15 -22 -15
-15 -1 -30 -13 -43 -33 -28 -44 -78 -67 -147 -67 -58 0 -58 0 -58 -30 l0 -30
108 0 c59 0 112 -4 118 -8 21 -14 32 -46 26 -84 -3 -26 0 -44 10 -56 39 -43
59 -105 65 -193 l6 -89 88 0 c72 0 89 -3 89 -15 0 -13 -74 -15 -610 -15 -536
0 -610 2 -610 15 0 12 17 15 94 15 l94 0 4 104 c3 100 4 107 37 152 28 40 32
54 28 87 -4 32 -1 44 18 63 22 22 32 24 130 24 l105 0 0 30 c0 30 0 30 -57 30
-70 0 -120 23 -148 67 -13 20 -28 32 -42 33 -15 0 -23 6 -23 18 0 9 -9 23 -20
29 -38 25 -34 132 6 147 8 3 14 15 14 26 0 13 7 20 19 20 12 0 26 14 38 38 30
59 86 82 200 82 l93 0 0 39 c0 22 -4 43 -10 46 -16 10 -11 53 8 64 21 13 20
13 43 1z"/>
<path d="M406 969 c-25 -20 -26 -23 -26 -140 0 -169 -16 -159 258 -159 276 0
262 -8 262 162 0 164 11 158 -260 158 -195 0 -209 -1 -234 -21z m117 -60 c65
-30 46 -129 -25 -129 -64 0 -92 80 -42 119 31 24 35 25 67 10z m301 -10 c50
-39 22 -119 -42 -119 -69 0 -91 98 -28 128 31 15 40 14 70 -9z m-144 -152 c0
-13 -28 -20 -55 -13 -38 10 -30 21 15 21 22 0 40 -3 40 -8z"/>
<path d="M491 891 c-19 -12 -6 -43 16 -39 10 2 18 12 18 22 0 22 -14 29 -34
17z"/>
<path d="M754 885 c-7 -18 3 -35 21 -35 21 0 28 19 15 35 -16 19 -29 19 -36 0z"/>
<path d="M325 490 c-6 -9 12 -160 36 -312 l11 -68 268 0 268 0 6 33 c18 104
46 339 41 347 -8 14 -622 13 -630 0z m603 -23 c8 -9 6 -50 -9 -148 -11 -73
-22 -144 -25 -157 l-4 -22 -250 0 -250 0 -5 23 c-3 12 -14 83 -25 157 -13 96
-16 138 -8 147 15 19 561 19 576 0z"/>
<path d="M542 337 l-32 -33 35 -34 c38 -37 62 -34 27 3 -27 29 -27 39 -2 62
21 19 26 35 12 35 -4 0 -22 -15 -40 -33z"/>
<path d="M626 312 c-19 -69 -19 -75 -4 -70 11 4 38 79 38 111 0 37 -18 14 -34
-41z"/>
<path d="M690 357 c0 -7 9 -18 20 -25 26 -16 25 -30 -2 -59 -35 -37 -11 -40
27 -3 l35 34 -32 33 c-34 35 -48 41 -48 20z"/>
</g>
</svg>
